<!DOCTYPE svg PUBLIC "-//W3C//DTD SVG 1.1//EN" "http://www.w3.org/Graphics/SVG/1.1/DTD/svg11.dtd">
<!-- Uploaded to: SVG Repo, www.svgrepo.com, Transformed by: SVG Repo Mixer Tools -->
<svg width="256px" height="256px" viewBox="0 0 1024.00 1024.00" class="icon" version="1.1" xmlns="http://www.w3.org/2000/svg" fill="#000000" stroke="#000000" stroke-width="0.01024" transform="matrix(1, 0, 0, 1, 0, 0)">
<g id="SVGRepo_bgCarrier" stroke-width="0"/>
<g id="SVGRepo_tracerCarrier" stroke-linecap="round" stroke-linejoin="round" stroke="#CCCCCC" stroke-width="63.488">
<path d="M732.1 399.3C534.6 356 696.5 82.1 425.9 104.8s-527.2 645.8-46.8 791.7 728-415 353-497.2z" fill="#41a300"/>
<path d="M720.2 769H480c-5.1 0-9.3-4.1-9.3-9.3s4.1-9.3 9.3-9.3h240.1c5.1 0 9.3 4.1 9.3 9.3s-4.1 9.3-9.2 9.3z" fill="#0f0f0f"/>
<path d="M480 769c-66.6 0-129.3-25.9-176.4-73-47.1-47.1-73-109.7-73-176.4s25.9-129.2 73-176.4c47.1-47.1 109.7-73 176.4-73s129.2 25.9 176.4 73c47.1 47.1 73 109.7 73 176.4s-25.9 129.2-73 176.4c-47.1 47.1-109.7 73-176.4 73z" fill="#FFFFFF"/>
<path d="M480 279.5c132.6 0 240.1 107.5 240.1 240.1S612.7 759.7 480 759.7c-132.6 0-240.1-107.5-240.1-240.1S347.4 279.5 480 279.5m0-18.6c-34.9 0-68.8 6.8-100.7 20.3-30.8 13-58.5 31.7-82.2 55.4-23.8 23.8-42.4 51.4-55.4 82.2-13.5 31.9-20.3 65.8-20.3 100.7s6.8 68.8 20.3 100.7c13 30.8 31.7 58.5 55.4 82.2 23.8 23.8 51.4 42.4 82.2 55.4 31.9 13.5 65.8 20.3 100.7 20.3s68.8-6.8 100.7-20.3c30.8-13 58.5-31.7 82.2-55.4 23.8-23.8 42.4-51.4 55.4-82.2 13.5-31.9 20.3-65.8 20.3-100.7s-6.8-68.8-20.3-100.7c-13-30.8-31.7-58.5-55.4-82.2-23.8-23.8-51.4-42.4-82.2-55.4-31.9-13.4-65.7-20.3-100.7-20.3z" fill="#0f0f0f"/>
<path d="M501.7 532.4m-214.4 0a214.4 214.4 0 1 0 428.8 0 214.4 214.4 0 1 0-428.8 0Z" fill="#efcf2e"/>
<path d="M480 402.7m-55.9 0a55.9 55.9 0 1 0 111.8 0 55.9 55.9 0 1 0-111.8 0Z" fill="#FFFFFF"/>
<path d="M480 356c25.8 0 46.7 20.9 46.7 46.7s-20.9 46.7-46.7 46.7c-25.8 0-46.7-20.9-46.7-46.7s21-46.7 46.7-46.7m0-18.5c-36 0-65.2 29.3-65.2 65.2s29.3 65.2 65.2 65.2c36 0 65.2-29.3 65.2-65.2S516 337.5 480 337.5z" fill="#0f0f0f"/>
<path d="M323.575083 559.156947a55.9 55.9 0 1 0 79.054538-79.054538 55.9 55.9 0 1 0-79.054538 79.054538Z" fill="#FFFFFF"/>
<path d="M363.1 472.9c25.8 0 46.7 20.9 46.7 46.7 0 25.8-20.9 46.7-46.7 46.7-25.8 0-46.7-20.9-46.7-46.7 0.1-25.8 21-46.7 46.7-46.7m0-18.5c-36 0-65.2 29.3-65.2 65.2s29.3 65.2 65.2 65.2c36 0 65.2-29.3 65.2-65.2s-29.2-65.2-65.2-65.2z" fill="#0f0f0f"/>
<path d="M480 692.4c-30.8 0-55.9-25.1-55.9-55.9s25.1-55.9 55.9-55.9c30.8 0 55.9 25.1 55.9 55.9s-25 55.9-55.9 55.9z" fill="#FFFFFF"/>
<path d="M480 589.8c25.8 0 46.7 20.9 46.7 46.7s-20.9 46.7-46.7 46.7c-25.8 0-46.7-20.9-46.7-46.7s21-46.7 46.7-46.7m0-18.5c-36 0-65.2 29.3-65.2 65.2s29.3 65.2 65.2 65.2c36 0 65.2-29.3 65.2-65.2S516 571.3 480 571.3z" fill="#0f0f0f"/>
<path d="M597 575.5c-30.8 0-55.9-25.1-55.9-55.9s25.1-55.9 55.9-55.9c30.8 0 55.9 25.1 55.9 55.9s-25.1 55.9-55.9 55.9z" fill="#FFFFFF"/>
<path d="M597 472.9c25.8 0 46.7 20.9 46.7 46.7s-20.9 46.7-46.7 46.7-46.7-20.9-46.7-46.7 20.9-46.7 46.7-46.7m0-18.5c-36 0-65.2 29.3-65.2 65.2s29.3 65.2 65.2 65.2c36 0 65.2-29.3 65.2-65.2s-29.3-65.2-65.2-65.2z" fill="#0f0f0f"/>
<path d="M480 519.6m-21.6 0a21.6 21.6 0 1 0 43.2 0 21.6 21.6 0 1 0-43.2 0Z" fill="#41a300"/>
<path d="M480 498c11.9 0 21.6 9.7 21.6 21.6 0 11.9-9.7 21.6-21.6 21.6-11.9 0-21.6-9.7-21.6-21.6 0-11.9 9.7-21.6 21.6-21.6m0-18.5c-22.1 0-40.2 18-40.2 40.2 0 22.1 18 40.2 40.2 40.2 22.1 0 40.2-18 40.2-40.2 0-22.2-18-40.2-40.2-40.2z" fill="#0f0f0f"/>
</g>
<g id="SVGRepo_iconCarrier">
<path d="M732.1 399.3C534.6 356 696.5 82.1 425.9 104.8s-527.2 645.8-46.8 791.7 728-415 353-497.2z" fill="#41a300"/>
<path d="M720.2 769H480c-5.1 0-9.3-4.1-9.3-9.3s4.1-9.3 9.3-9.3h240.1c5.1 0 9.3 4.1 9.3 9.3s-4.1 9.3-9.2 9.3z" fill="#0f0f0f"/>
<path d="M480 769c-66.6 0-129.3-25.9-176.4-73-47.1-47.1-73-109.7-73-176.4s25.9-129.2 73-176.4c47.1-47.1 109.7-73 176.4-73s129.2 25.9 176.4 73c47.1 47.1 73 109.7 73 176.4s-25.9 129.2-73 176.4c-47.1 47.1-109.7 73-176.4 73z" fill="#FFFFFF"/>
<path d="M480 279.5c132.6 0 240.1 107.5 240.1 240.1S612.7 759.7 480 759.7c-132.6 0-240.1-107.5-240.1-240.1S347.4 279.5 480 279.5m0-18.6c-34.9 0-68.8 6.8-100.7 20.3-30.8 13-58.5 31.7-82.2 55.4-23.8 23.8-42.4 51.4-55.4 82.2-13.5 31.9-20.3 65.8-20.3 100.7s6.8 68.8 20.3 100.7c13 30.8 31.7 58.5 55.4 82.2 23.8 23.8 51.4 42.4 82.2 55.4 31.9 13.5 65.8 20.3 100.7 20.3s68.8-6.8 100.7-20.3c30.8-13 58.5-31.7 82.2-55.4 23.8-23.8 42.4-51.4 55.4-82.2 13.5-31.9 20.3-65.8 20.3-100.7s-6.8-68.8-20.3-100.7c-13-30.8-31.7-58.5-55.4-82.2-23.8-23.8-51.4-42.4-82.2-55.4-31.9-13.4-65.7-20.3-100.7-20.3z" fill="#0f0f0f"/>
<path d="M501.7 532.4m-214.4 0a214.4 214.4 0 1 0 428.8 0 214.4 214.4 0 1 0-428.8 0Z" fill="#efcf2e"/>
<path d="M480 402.7m-55.9 0a55.9 55.9 0 1 0 111.8 0 55.9 55.9 0 1 0-111.8 0Z" fill="#FFFFFF"/>
<path d="M480 356c25.8 0 46.7 20.9 46.7 46.7s-20.9 46.7-46.7 46.7c-25.8 0-46.7-20.9-46.7-46.7s21-46.7 46.7-46.7m0-18.5c-36 0-65.2 29.3-65.2 65.2s29.3 65.2 65.2 65.2c36 0 65.2-29.3 65.2-65.2S516 337.5 480 337.5z" fill="#0f0f0f"/>
<path d="M323.575083 559.156947a55.9 55.9 0 1 0 79.054538-79.054538 55.9 55.9 0 1 0-79.054538 79.054538Z" fill="#FFFFFF"/>
<path d="M363.1 472.9c25.8 0 46.7 20.9 46.7 46.7 0 25.8-20.9 46.7-46.7 46.7-25.8 0-46.7-20.9-46.7-46.7 0.1-25.8 21-46.7 46.7-46.7m0-18.5c-36 0-65.2 29.3-65.2 65.2s29.3 65.2 65.2 65.2c36 0 65.2-29.3 65.2-65.2s-29.2-65.2-65.2-65.2z" fill="#0f0f0f"/>
<path d="M480 692.4c-30.8 0-55.9-25.1-55.9-55.9s25.1-55.9 55.9-55.9c30.8 0 55.9 25.1 55.9 55.9s-25 55.9-55.9 55.9z" fill="#FFFFFF"/>
<path d="M480 589.8c25.8 0 46.7 20.9 46.7 46.7s-20.9 46.7-46.7 46.7c-25.8 0-46.7-20.9-46.7-46.7s21-46.7 46.7-46.7m0-18.5c-36 0-65.2 29.3-65.2 65.2s29.3 65.2 65.2 65.2c36 0 65.2-29.3 65.2-65.2S516 571.3 480 571.3z" fill="#0f0f0f"/>
<path d="M597 575.5c-30.8 0-55.9-25.1-55.9-55.9s25.1-55.9 55.9-55.9c30.8 0 55.9 25.1 55.9 55.9s-25.1 55.9-55.9 55.9z" fill="#FFFFFF"/>
<path d="M597 472.9c25.8 0 46.7 20.9 46.7 46.7s-20.9 46.7-46.7 46.7-46.7-20.9-46.7-46.7 20.9-46.7 46.7-46.7m0-18.5c-36 0-65.2 29.3-65.2 65.2s29.3 65.2 65.2 65.2c36 0 65.2-29.3 65.2-65.2s-29.3-65.2-65.2-65.2z" fill="#0f0f0f"/>
<path d="M480 519.6m-21.6 0a21.6 21.6 0 1 0 43.2 0 21.6 21.6 0 1 0-43.2 0Z" fill="#41a300"/>
<path d="M480 498c11.9 0 21.6 9.7 21.6 21.6 0 11.9-9.7 21.6-21.6 21.6-11.9 0-21.6-9.7-21.6-21.6 0-11.9 9.7-21.6 21.6-21.6m0-18.5c-22.1 0-40.2 18-40.2 40.2 0 22.1 18 40.2 40.2 40.2 22.1 0 40.2-18 40.2-40.2 0-22.2-18-40.2-40.2-40.2z" fill="#0f0f0f"/>
</g>
</svg>